<?xml version="1.0" standalone="no"?>
<!DOCTYPE svg PUBLIC "-//W3C//DTD SVG 20010904//EN"
 "http://www.w3.org/TR/2001/REC-SVG-20010904/DTD/svg10.dtd">
<svg version="1.0" xmlns="http://www.w3.org/2000/svg"
 width="452.000000pt" height="452.000000pt" viewBox="0 0 452.000000 452.000000"
 preserveAspectRatio="xMidYMid meet">

<g transform="translate(0.000000,452.000000) scale(0.100000,-0.100000)"
fill="#000000" stroke="none">
<path d="M2070 4514 c-126 -15 -209 -28 -310 -51 -841 -186 -1518 -863 -1703
-1703 -45 -203 -51 -265 -51 -500 0 -235 6 -297 51 -500 185 -840 863 -1518
1703 -1703 203 -45 265 -51 500 -51 235 0 297 6 500 51 840 185 1518 863 1703
1703 45 203 51 265 51 500 0 235 -6 297 -51 500 -178 809 -816 1472 -1618
1683 -191 51 -325 68 -540 72 -110 2 -216 1 -235 -1z m479 -100 c223 -32 420
-92 616 -188 369 -181 668 -437 897 -767 187 -269 296 -542 355 -889 20 -117
23 -494 5 -615 -69 -452 -275 -865 -599 -1202 -70 -74 -83 -83 -115 -83 l-36
0 97 98 c331 336 532 735 603 1197 16 106 16 456 0 570 -90 631 -462 1186
-1032 1540 -656 406 -1466 414 -2135 20 -355 -209 -683 -555 -860 -906 -169
-334 -245 -718 -217 -1082 40 -523 246 -968 624 -1349 l87 -88 -34 0 c-29 0
-45 12 -119 88 -238 244 -429 559 -516 852 -73 245 -94 388 -95 640 0 204 2
222 47 455 61 318 237 667 480 950 330 385 800 660 1270 744 160 28 153 28
372 30 134 1 233 -4 305 -15z m-419 -306 c5 -13 53 -180 105 -373 104 -383
103 -380 110 -373 3 2 58 173 124 379 82 256 124 375 134 377 24 5 87 -26 87
-42 0 -14 -68 -321 -126 -566 -13 -58 -46 -201 -73 -319 l-49 -213 64 -237
c36 -130 67 -242 69 -250 4 -10 14 -7 40 13 51 39 102 58 159 58 77 1 128 -18
180 -63 62 -55 88 -108 94 -191 4 -59 1 -75 -22 -122 -51 -105 -154 -164 -265
-153 l-56 6 25 -19 c53 -41 141 -81 216 -98 75 -18 102 -36 71 -48 -18 -6
-108 15 -187 45 -99 37 -232 159 -283 257 -9 17 -50 161 -91 319 -41 158 -77
290 -80 292 -2 2 -19 1 -38 -2 l-35 -7 -51 -226 c-28 -125 -53 -250 -56 -279
-9 -96 -65 -177 -152 -219 -47 -23 -63 -26 -122 -22 -221 16 -331 248 -203
425 78 108 229 136 350 66 27 -16 46 -21 50 -15 3 6 31 109 60 229 l54 218
-102 550 c-57 303 -104 561 -104 574 -2 21 5 27 38 37 54 17 54 17 65 -8z
m-828 -1493 c-1 -38 -5 -91 -8 -117 l-6 -48 54 0 c29 0 58 4 65 8 6 4 14 53
18 120 l8 112 80 0 80 0 -7 -87 c-3 -49 -9 -190 -13 -315 l-6 -228 -85 0 -85
0 7 129 7 130 -38 -6 c-80 -13 -77 -8 -88 -139 l-10 -119 -74 -3 c-41 -2 -78
1 -82 5 -8 8 26 593 36 621 3 9 25 12 77 10 l73 -3 -3 -70z m2197 42 c49 -33
80 -95 88 -180 15 -163 -60 -327 -179 -392 -46 -25 -66 -30 -151 -33 -54 -3
-102 0 -106 4 -11 12 22 581 34 593 18 18 149 41 213 37 46 -3 73 -10 101 -29z
m-2084 -893 c28 -11 44 -58 75 -224 41 -223 43 -212 -27 -208 l-58 3 -5 38
c-6 42 -5 42 -59 33 -32 -5 -39 -11 -47 -38 -9 -31 -12 -33 -62 -36 -37 -2
-54 1 -57 10 -6 16 61 231 104 333 36 85 76 112 136 89z m659 -17 c55 -36 54
-142 0 -207 l-26 -31 31 -58 c17 -32 31 -61 31 -64 0 -5 -77 -57 -84 -57 -3 0
-22 32 -42 70 -47 90 -68 91 -72 5 -3 -64 -11 -75 -57 -75 -53 0 -53 -1 -38
214 7 110 15 201 17 203 2 2 30 7 62 12 79 13 147 8 178 -12z m1226 -27 c0
-41 -3 -50 -17 -50 -58 -1 -157 -20 -164 -32 -20 -31 -10 -39 49 -38 94 3 89
5 88 -42 l-1 -43 -72 -8 c-70 -9 -73 -10 -73 -36 l0 -27 88 1 87 0 3 -48 c2
-32 -1 -49 -10 -51 -7 -3 -73 -7 -147 -11 l-134 -6 7 188 c3 103 9 200 12 215
7 30 13 31 212 36 l72 2 0 -50z m557 18 c36 -37 43 -110 14 -166 -11 -22 -28
-45 -36 -50 -13 -7 -11 -16 15 -65 16 -31 30 -61 30 -67 0 -14 -83 -67 -87
-55 -2 6 -18 37 -36 70 -23 43 -38 60 -52 60 -17 0 -21 -8 -25 -65 l-5 -65
-39 -3 c-21 -2 -43 1 -48 6 -10 10 10 392 22 405 12 13 108 26 168 23 42 -2
59 -8 79 -28z m-2998 -4 c27 -22 31 -33 31 -72 0 -29 -8 -59 -20 -80 -19 -31
-19 -35 -4 -64 20 -39 14 -110 -12 -140 -32 -36 -77 -48 -178 -48 -52 0 -97 3
-99 8 -3 5 28 402 32 409 2 4 78 10 148 11 64 2 75 -1 102 -24z m1832 -3 c38
-38 40 -100 5 -151 -23 -35 -23 -36 -5 -59 41 -51 10 -149 -56 -177 -22 -9
-70 -14 -135 -14 l-100 0 6 83 c4 45 12 138 18 207 l11 125 40 6 c22 3 73 7
113 8 69 1 75 -1 103 -28z m824 -981 c28 -76 35 -104 26 -113 -16 -16 -24 -4
-56 81 l-27 74 -32 -31 c-22 -21 -35 -28 -45 -21 -11 6 -4 20 35 63 27 30 52
53 55 51 3 -1 22 -48 44 -104z m-2396 -55 c44 -48 49 -70 26 -115 -35 -67 -97
-78 -163 -29 -23 17 -42 35 -42 40 0 12 119 149 129 149 5 0 27 -20 50 -45z
m2177 -100 c26 -32 42 -44 55 -40 25 8 34 -14 13 -31 -71 -55 -74 -56 -80 -39
-4 9 -1 20 6 25 14 8 2 37 -24 59 -12 10 -16 9 -24 -5 -5 -10 -14 -14 -21 -9
-20 12 5 85 30 85 4 0 24 -20 45 -45z m-1876 -108 c0 -18 -30 -17 -61 2 -24
15 -36 17 -46 9 -21 -17 -15 -32 22 -53 24 -14 32 -24 26 -33 -6 -10 -16 -9
-45 9 -32 18 -39 20 -47 8 -16 -25 -10 -37 30 -60 24 -13 37 -27 34 -35 -7
-19 -10 -18 -75 19 l-58 33 51 87 51 87 59 -32 c32 -18 59 -36 59 -41z m1665
-3 c20 -8 45 -56 45 -86 0 -70 -77 -93 -124 -37 -60 71 -7 155 79 123z m-1446
-99 c22 -22 23 -25 7 -31 -10 -4 -24 0 -35 10 -10 9 -25 16 -34 16 -32 0 -28
-22 12 -59 46 -42 50 -62 21 -91 -24 -24 -51 -25 -89 -6 -39 21 -57 44 -43 58
8 8 18 5 38 -11 30 -24 64 -28 64 -8 0 7 -16 27 -35 44 -41 37 -46 74 -12 98
29 21 74 12 106 -20z m1199 -27 c18 -18 15 -38 -13 -74 -32 -42 -31 -45 5 -32
33 11 69 3 54 -12 -5 -4 -34 -18 -64 -29 -41 -16 -56 -18 -62 -8 -13 20 -9 33
22 72 17 21 30 41 30 46 0 17 -22 20 -45 5 -30 -20 -45 -20 -45 -2 0 36 90 62
118 34z m-937 -38 c27 -15 49 -51 49 -82 0 -71 -51 -114 -124 -103 -68 11 -68
11 -50 105 21 117 16 110 65 99 23 -5 50 -14 60 -19z m329 -34 c0 -11 -14 -16
-47 -18 -41 -3 -48 -6 -51 -25 -3 -19 2 -22 39 -25 58 -4 63 -26 7 -30 -38 -3
-43 -6 -43 -28 0 -23 4 -25 48 -28 33 -2 47 -7 47 -18 0 -11 -16 -14 -70 -14
l-70 0 0 100 0 100 70 0 c54 0 70 -3 70 -14z"/>
<path d="M2070 4063 c0 -10 46 -267 102 -571 l102 -552 21 26 c17 22 27 26 48
20 28 -7 42 -35 32 -65 -9 -29 -41 -36 -72 -16 l-25 17 7 -44 c9 -58 16 -63
67 -50 24 6 46 8 50 4 4 -4 44 -147 89 -317 44 -171 89 -324 100 -341 39 -64
114 -104 192 -104 127 1 227 99 227 225 0 132 -93 225 -227 225 -69 0 -129
-27 -173 -76 -17 -20 -36 -34 -43 -31 -6 2 -114 377 -238 833 -175 642 -230
830 -243 832 -10 2 -16 -3 -16 -15z m762 -1604 c21 -5 53 -26 72 -45 106 -109
29 -284 -124 -284 -50 0 -89 19 -124 60 -73 88 -45 214 58 261 47 21 67 23
118 8z"/>
<path d="M2735 2421 c-34 -14 -74 -62 -81 -96 -8 -46 11 -99 49 -131 27 -23
38 -26 89 -22 68 5 103 31 118 88 28 104 -77 201 -175 161z"/>
<path d="M2601 4029 c-7 -23 -15 -48 -18 -58 -3 -9 11 1 31 21 39 41 48 78 18
78 -13 0 -23 -12 -31 -41z"/>
<path d="M2605 3921 c-3 -6 -15 -11 -25 -11 -14 0 -22 -11 -30 -41 -6 -22 -14
-48 -17 -57 -3 -9 12 0 35 22 22 21 43 50 47 63 6 27 1 41 -10 24z"/>
<path d="M2442 3532 l-82 -257 27 -98 c14 -53 29 -97 33 -97 4 0 16 40 27 90
l20 90 -22 -6 c-37 -9 -36 10 4 57 40 46 60 89 42 89 -5 0 -13 -4 -16 -10 -9
-14 -35 -12 -35 3 0 7 18 30 39 51 22 21 42 47 44 57 6 22 -3 25 -21 7 -9 -9
-13 -7 -18 6 -5 12 4 29 28 54 20 20 38 50 42 65 7 28 7 28 -19 11 -23 -15
-25 -15 -31 1 -5 11 6 30 34 58 22 23 43 52 47 65 7 23 -4 29 -22 11 -8 -8
-13 -8 -17 0 -4 6 -10 11 -15 11 -4 0 -44 -116 -89 -258z"/>
<path d="M2325 2940 c3 -5 8 -10 11 -10 2 0 4 5 4 10 0 6 -5 10 -11 10 -5 0
-7 -4 -4 -10z"/>
<path d="M2194 2638 c-27 -111 -54 -203 -60 -205 -6 -2 -24 8 -40 22 -58 52
-101 67 -174 63 -132 -7 -216 -94 -214 -223 1 -131 96 -225 229 -225 121 0
224 99 225 217 0 23 23 138 50 256 48 206 59 280 42 291 -4 2 -30 -86 -58
-196z m-220 -177 c21 -5 54 -24 72 -42 110 -106 40 -289 -110 -289 -186 1
-241 244 -72 321 47 21 56 22 110 10z"/>
<path d="M1871 2413 c-64 -32 -88 -108 -56 -177 41 -85 187 -89 230 -6 33 64
8 153 -54 185 -38 19 -77 19 -120 -2z"/>
<path d="M3340 2531 c-24 -7 -25 -11 -32 -106 -11 -149 -12 -204 -5 -211 3 -4
21 2 39 12 36 21 88 110 88 151 0 15 8 27 23 33 15 6 17 9 6 9 -11 1 -19 14
-23 43 -11 69 -35 86 -96 69z"/>
<path d="M1357 1584 c-2 -5 -8 -24 -12 -41 -6 -29 -4 -33 14 -33 16 0 21 6 21
28 0 30 -15 59 -23 46z"/>
<path d="M1450 1419 c0 -11 7 -27 15 -35 17 -17 19 -7 9 34 -8 28 -24 29 -24
1z"/>
<path d="M1933 1663 c-8 -3 -13 -23 -13 -50 0 -41 1 -44 23 -38 34 11 67 46
67 72 0 19 -5 23 -32 22 -18 0 -39 -3 -45 -6z"/>
<path d="M3713 1662 c-17 -11 -29 -92 -14 -92 42 0 102 64 85 91 -6 11 -54 12
-71 1z"/>
<path d="M700 1641 c-19 -37 -13 -54 17 -46 37 9 53 23 53 46 0 27 -55 26 -70
0z"/>
<path d="M697 1493 c-13 -12 -7 -63 7 -63 24 0 60 36 53 53 -6 17 -47 23 -60
10z"/>
<path d="M2530 1641 c-19 -37 -13 -54 17 -46 37 9 53 23 53 46 0 27 -55 26
-70 0z"/>
<path d="M2527 1494 c-14 -14 -8 -64 8 -64 20 0 57 38 52 53 -4 14 -49 22 -60
11z"/>
<path d="M1044 657 c-57 -61 -59 -66 -38 -82 28 -21 68 -18 92 8 28 30 28 58
-1 85 l-23 22 -30 -33z"/>
<path d="M3021 446 c-22 -27 22 -95 54 -82 21 8 19 59 -3 79 -23 21 -36 21
-51 3z"/>
<path d="M1827 293 c-3 -5 -8 -34 -12 -65 l-7 -58 35 0 c26 0 40 6 51 22 21
30 20 71 -2 91 -19 17 -57 23 -65 10z"/>
</g>
</svg>
