<?xml version="1.0" standalone="no"?>
<!DOCTYPE svg PUBLIC "-//W3C//DTD SVG 20010904//EN"
 "http://www.w3.org/TR/2001/REC-SVG-20010904/DTD/svg10.dtd">
<svg version="1.0" xmlns="http://www.w3.org/2000/svg"
 width="437.000000pt" height="316.000000pt" viewBox="0 0 437.000000 316.000000"
 preserveAspectRatio="xMidYMid meet">

<g transform="translate(0.000000,316.000000) scale(0.100000,-0.100000)"
fill="#000000" stroke="none">
<path d="M2115 3010 c16 -7 12 -9 -20 -9 -102 -3 -285 -64 -285 -95 0 -9 -8
-16 -17 -16 -50 -1 -153 -71 -153 -104 0 -12 5 -14 26 -6 41 16 53 11 14 -6
-74 -32 -119 -101 -127 -196 -6 -58 1 -70 25 -46 8 8 7 -4 -3 -34 -19 -53 -17
-144 3 -141 8 2 12 -16 12 -65 0 -37 5 -85 10 -107 6 -22 15 -98 20 -170 13
-161 51 -423 96 -660 41 -213 33 -201 220 -308 141 -80 185 -91 355 -85 119 3
129 5 170 32 59 39 260 188 280 208 25 26 72 496 84 858 6 179 1 242 -31 404
-4 19 -3 26 5 22 17 -11 13 14 -14 78 -13 33 -22 63 -19 68 8 13 -30 91 -64
129 -17 19 -53 46 -81 59 -28 14 -50 30 -51 36 0 22 -70 91 -116 116 -58 31
-138 46 -158 29 -10 -9 -28 -8 -72 4 -64 17 -145 20 -109 5z m483 -468 c23
-11 44 -32 59 -62 13 -24 27 -47 32 -50 4 -3 20 -25 34 -50 40 -69 57 -158 57
-302 0 -111 -3 -136 -24 -192 -24 -62 -118 -258 -146 -303 l-14 -22 -104 56
-104 56 -70 -13 c-61 -12 -78 -11 -142 4 -70 16 -75 16 -122 -2 -27 -10 -76
-35 -109 -54 -32 -20 -64 -34 -70 -32 -6 3 -53 74 -105 159 -102 169 -108 189
-109 337 -1 97 20 171 70 244 47 69 89 98 199 137 155 54 212 66 334 73 120 6
206 25 246 54 24 17 25 17 38 -1 7 -11 30 -27 50 -37z m-187 -963 c113 -18
157 -62 129 -129 -25 -61 -150 -146 -202 -138 -13 2 -24 15 -32 38 -9 29 -16
36 -44 38 -29 3 -33 0 -38 -27 -10 -47 -26 -55 -80 -42 -99 25 -184 118 -174
191 3 21 31 51 60 62 56 23 257 27 381 7z"/>
<path d="M95 839 l-30 -8 0 -190 0 -191 43 -6 c23 -3 70 -4 103 -2 82 6 114
36 114 109 0 44 -4 54 -29 74 -27 22 -28 24 -12 46 19 27 21 87 5 123 -22 48
-113 69 -194 45z m144 -61 c11 -20 13 -35 6 -65 -9 -36 -12 -38 -55 -43 -32
-4 -46 -10 -48 -22 -3 -15 4 -18 42 -18 66 0 92 -29 87 -95 -3 -31 -39 -55
-81 -55 -72 0 -70 -5 -70 164 0 84 3 156 7 160 4 4 28 6 52 4 37 -2 48 -8 60
-30z"/>
<path d="M564 843 c-18 -3 -24 -16 -34 -66 -6 -33 -32 -121 -56 -193 -24 -73
-44 -135 -44 -138 0 -3 11 -6 25 -6 20 0 26 7 35 43 6 23 13 50 16 60 5 14 17
17 79 17 62 0 74 -3 79 -17 3 -10 10 -37 16 -60 10 -38 14 -43 40 -43 17 0 30
1 30 3 0 2 -22 71 -49 153 -27 82 -52 170 -56 197 -5 28 -12 47 -20 47 -7 0
-19 2 -27 4 -7 2 -23 1 -34 -1z m53 -128 c12 -38 24 -80 28 -92 6 -22 4 -23
-60 -23 -76 0 -72 -15 -27 123 14 43 28 74 32 70 3 -4 16 -39 27 -78z"/>
<path d="M926 841 l-29 -6 -1 -198 -1 -198 25 3 25 3 -4 121 c-2 66 0 148 4
181 6 57 9 61 34 65 80 12 125 -37 102 -112 -14 -47 -39 -64 -74 -51 -14 6
-28 7 -31 4 -11 -11 -6 -43 7 -43 6 0 34 -38 61 -85 43 -76 51 -85 77 -85 16
0 29 4 29 9 0 5 -22 42 -50 82 -48 70 -53 89 -25 89 7 0 25 14 39 31 29 34 35
96 13 139 -25 49 -110 71 -201 51z"/>
<path d="M1336 842 l-29 -7 -1 -192 -1 -192 29 -5 c45 -9 142 -7 170 4 36 13
61 57 60 104 -1 31 -8 46 -32 67 -28 25 -29 28 -13 43 11 11 16 34 16 71 0 46
-4 59 -27 82 -22 22 -37 27 -85 29 -32 2 -71 0 -87 -4z m128 -48 c47 -46 25
-116 -39 -124 -26 -3 -41 -11 -43 -21 -2 -13 8 -17 49 -21 61 -6 79 -24 79
-79 0 -28 -6 -42 -22 -53 -23 -16 -94 -21 -114 -8 -12 7 -20 151 -16 265 l2
57 44 0 c27 0 51 -6 60 -16z"/>
<path d="M1820 842 l-105 -3 3 -197 3 -197 109 -1 c109 -1 110 -1 110 22 0 22
-4 23 -82 26 l-83 3 -3 68 -3 67 75 0 c69 0 74 1 69 20 -5 18 -14 20 -74 20
l-69 0 0 65 0 65 80 0 c64 0 82 3 87 16 10 25 -7 29 -117 26z"/>
<path d="M2135 839 l-30 -8 0 -196 0 -196 25 3 25 3 0 177 c0 97 3 179 7 183
3 4 28 7 54 7 39 0 52 -5 67 -24 42 -50 -2 -159 -57 -142 -36 11 -40 10 -44
-13 -2 -15 2 -23 11 -23 8 0 35 -38 62 -85 42 -76 50 -85 76 -85 16 0 29 5 29
10 0 6 -23 44 -50 86 l-51 74 24 9 c61 23 89 125 51 180 -32 45 -121 63 -199
40z"/>
<path d="M2730 844 c-13 -4 -15 -35 -15 -204 l0 -200 28 0 27 0 0 90 0 90 86
0 86 0 -7 -91 -7 -91 27 4 28 3 1 198 c1 110 -2 201 -5 202 -3 2 -16 1 -28 -2
-22 -6 -23 -8 -16 -88 l7 -82 -32 -7 c-41 -8 -104 -8 -124 0 -13 5 -16 23 -16
95 0 91 -1 93 -40 83z"/>
<path d="M3230 831 c-60 -32 -75 -70 -75 -191 0 -116 13 -153 65 -184 34 -20
109 -21 155 -2 55 23 70 64 70 186 0 87 -3 111 -20 139 -24 41 -77 71 -125 71
-19 0 -51 -8 -70 -19z m135 -45 c29 -29 38 -75 33 -166 -6 -103 -57 -158 -124
-134 -46 16 -68 57 -72 134 -8 135 21 190 98 190 30 0 47 -6 65 -24z"/>
<path d="M3670 833 c-68 -35 -102 -130 -85 -240 16 -109 59 -153 151 -153 105
0 145 58 145 208 0 93 -17 142 -62 175 -38 28 -106 32 -149 10z m136 -61 c45
-66 38 -218 -12 -268 -25 -26 -71 -32 -106 -13 -68 36 -79 230 -16 296 18 20
31 23 67 21 38 -3 49 -8 67 -36z"/>
<path d="M4085 842 l-30 -7 -3 -191 -2 -192 22 -6 c13 -3 50 -6 83 -6 121 0
170 55 170 195 0 99 -16 147 -62 182 -37 28 -115 39 -178 25z m150 -58 c21
-22 45 -97 45 -139 0 -44 -24 -117 -47 -139 -28 -28 -78 -35 -114 -16 -17 10
-19 23 -19 159 0 81 3 151 7 154 3 4 28 7 55 7 40 0 53 -5 73 -26z"/>
<path d="M2080 296 c0 -19 -4 -23 -20 -19 -25 7 -45 -34 -36 -71 5 -21 12 -25
41 -24 l35 1 0 69 c0 39 -4 68 -10 68 -5 0 -10 -11 -10 -24z m0 -65 c0 -16 -6
-31 -14 -34 -19 -8 -26 1 -26 35 0 21 5 28 20 28 15 0 20 -7 20 -29z"/>
<path d="M1730 245 l0 -65 34 0 c41 0 58 18 59 64 1 45 -18 66 -59 66 l-34 0
0 -65z m71 28 c12 -33 5 -69 -17 -77 -26 -10 -34 3 -34 55 0 43 3 49 20 49 13
0 24 -10 31 -27z"/>
<path d="M2277 304 c-4 -4 -7 -14 -7 -22 0 -12 3 -12 19 2 20 18 41 14 41 -7
0 -7 -13 -28 -30 -47 -16 -19 -29 -38 -30 -42 0 -5 18 -8 40 -8 22 0 40 5 40
10 0 6 -11 8 -25 4 -32 -8 -31 0 1 38 33 41 29 72 -11 76 -17 2 -34 0 -38 -4z"/>
<path d="M2392 298 c-7 -7 -12 -30 -12 -53 0 -23 5 -46 12 -53 15 -15 51 -15
66 0 13 13 16 75 6 102 -7 19 -55 21 -72 4z m58 -28 c10 -38 -3 -75 -26 -75
-15 0 -20 8 -22 39 -2 21 -1 45 2 53 9 22 39 11 46 -17z"/>
<path d="M2503 303 c-7 -2 -13 -9 -13 -15 0 -6 6 -8 14 -5 18 7 26 -24 19 -69
-4 -25 -2 -34 8 -34 11 0 13 15 11 65 -4 64 -9 71 -39 58z"/>
<path d="M2598 303 c17 -2 32 -6 32 -8 0 -2 -9 -28 -20 -56 -12 -28 -18 -54
-15 -57 7 -8 10 -3 38 66 l25 62 -47 -2 c-36 -1 -39 -2 -13 -5z"/>
<path d="M1864 272 c-18 -12 -26 -50 -14 -72 11 -21 60 -29 60 -9 0 6 -9 8
-20 4 -11 -4 -20 -2 -20 4 0 6 -1 14 -2 18 -2 3 8 8 21 10 33 5 35 8 21 32
-11 22 -27 26 -46 13z m36 -22 c0 -5 -9 -10 -21 -10 -11 0 -17 5 -14 10 3 6
13 10 21 10 8 0 14 -4 14 -10z"/>
<path d="M1947 274 c-14 -14 -7 -43 13 -54 11 -6 20 -15 20 -21 0 -6 -9 -8
-20 -4 -11 4 -20 2 -20 -4 0 -17 50 -13 57 5 4 10 -4 25 -23 41 l-29 24 28 -6
c21 -4 28 -2 25 7 -5 15 -40 23 -51 12z"/>
<path d="M2128 255 c-16 -36 3 -75 37 -75 14 0 25 4 25 10 0 5 -10 9 -22 7
-15 -1 -23 4 -26 17 -3 12 1 17 10 14 7 -3 21 -1 31 4 14 7 15 13 7 28 -15 28
-48 25 -62 -5z m52 -5 c0 -5 -9 -10 -21 -10 -11 0 -17 5 -14 10 3 6 13 10 21
10 8 0 14 -4 14 -10z"/>
</g>
</svg>
